<svg width="360" height="180" viewBox="0 0 360 180" fill="none" xmlns="http://www.w3.org/2000/svg">
<g clip-path="url(#clip0_1_7)">
<line x1="279.6" y1="85" x2="360" y2="85" stroke="#CDCDCD" stroke-width="10"/>
<line y1="85" x2="67" y2="85" stroke="#CDCDCD" stroke-width="10"/>
<path d="M155 123.333C151.528 123.333 148.576 122.118 146.146 119.688C143.715 117.257 142.5 114.306 142.5 110.833H134.167V65C134.167 62.7083 134.983 60.7465 136.615 59.1146C138.247 57.4826 140.208 56.6667 142.5 56.6667H200.833V73.3333H213.333L225.833 90V110.833H217.5C217.5 114.306 216.285 117.257 213.854 119.688C211.424 122.118 208.472 123.333 205 123.333C201.528 123.333 198.576 122.118 196.146 119.688C193.715 117.257 192.5 114.306 192.5 110.833H167.5C167.5 114.306 166.285 117.257 163.854 119.688C161.424 122.118 158.472 123.333 155 123.333ZM155 115C156.181 115 157.17 114.601 157.969 113.802C158.767 113.003 159.167 112.014 159.167 110.833C159.167 109.653 158.767 108.663 157.969 107.865C157.17 107.066 156.181 106.667 155 106.667C153.819 106.667 152.83 107.066 152.031 107.865C151.233 108.663 150.833 109.653 150.833 110.833C150.833 112.014 151.233 113.003 152.031 113.802C152.83 114.601 153.819 115 155 115ZM142.5 102.5H145.833C147.014 101.25 148.368 100.243 149.896 99.4792C151.424 98.7153 153.125 98.3333 155 98.3333C156.875 98.3333 158.576 98.7153 160.104 99.4792C161.632 100.243 162.986 101.25 164.167 102.5H192.5V65H142.5V102.5ZM205 115C206.181 115 207.17 114.601 207.969 113.802C208.767 113.003 209.167 112.014 209.167 110.833C209.167 109.653 208.767 108.663 207.969 107.865C207.17 107.066 206.181 106.667 205 106.667C203.819 106.667 202.83 107.066 202.031 107.865C201.233 108.663 200.833 109.653 200.833 110.833C200.833 112.014 201.233 113.003 202.031 113.802C202.83 114.601 203.819 115 205 115ZM200.833 94.1667H218.542L209.167 81.6667H200.833V94.1667Z" fill="#00AA13"/>
</g>
<defs>
<clipPath id="clip0_1_7">
<rect width="360" height="180" fill="white"/>
</clipPath>
</defs>
</svg>
