<svg width="360" height="180" viewBox="0 0 360 180" fill="none" xmlns="http://www.w3.org/2000/svg">
<g clip-path="url(#clip0_1_81)">
<line x1="279.6" y1="85" x2="360" y2="85" stroke="#CDCDCD" stroke-width="10"/>
<path d="M175.833 120.938V92.3958L150.833 77.9167V106.458L175.833 120.938ZM184.167 120.938L209.167 106.458V77.9167L184.167 92.3958V120.938ZM175.833 130.521L146.667 113.75C145.347 112.986 144.323 111.979 143.594 110.729C142.865 109.479 142.5 108.09 142.5 106.563V73.4375C142.5 71.9097 142.865 70.5208 143.594 69.2708C144.323 68.0208 145.347 67.0139 146.667 66.25L175.833 49.4792C177.153 48.7153 178.542 48.3333 180 48.3333C181.458 48.3333 182.847 48.7153 184.167 49.4792L213.333 66.25C214.653 67.0139 215.677 68.0208 216.406 69.2708C217.135 70.5208 217.5 71.9097 217.5 73.4375V106.563C217.5 108.09 217.135 109.479 216.406 110.729C215.677 111.979 214.653 112.986 213.333 113.75L184.167 130.521C182.847 131.285 181.458 131.667 180 131.667C178.542 131.667 177.153 131.285 175.833 130.521ZM196.667 75.5208L204.687 70.9375L180 56.6667L171.875 61.3542L196.667 75.5208ZM180 85.2083L188.125 80.5208L163.437 66.25L155.312 70.9375L180 85.2083Z" fill="#00AA13"/>
</g>
<defs>
<clipPath id="clip0_1_81">
<rect width="360" height="180" fill="white"/>
</clipPath>
</defs>
</svg>
