<svg width="360" height="180" viewBox="0 0 360 180" fill="none" xmlns="http://www.w3.org/2000/svg">
<line y1="85" x2="67" y2="85" stroke="#CDCDCD" stroke-width="10"/>
<path d="M174.167 109.167L203.542 79.7916L197.708 73.9583L174.167 97.5L162.292 85.625L156.458 91.4583L174.167 109.167ZM180 131.667C174.236 131.667 168.819 130.573 163.75 128.385C158.681 126.198 154.271 123.229 150.521 119.479C146.771 115.729 143.802 111.319 141.615 106.25C139.427 101.181 138.333 95.7639 138.333 90C138.333 84.2361 139.427 78.8194 141.615 73.75C143.802 68.6805 146.771 64.2708 150.521 60.5208C154.271 56.7708 158.681 53.8021 163.75 51.6146C168.819 49.4271 174.236 48.3333 180 48.3333C185.764 48.3333 191.181 49.4271 196.25 51.6146C201.319 53.8021 205.729 56.7708 209.479 60.5208C213.229 64.2708 216.198 68.6805 218.385 73.75C220.573 78.8194 221.667 84.2361 221.667 90C221.667 95.7639 220.573 101.181 218.385 106.25C216.198 111.319 213.229 115.729 209.479 119.479C205.729 123.229 201.319 126.198 196.25 128.385C191.181 130.573 185.764 131.667 180 131.667ZM180 123.333C189.306 123.333 197.188 120.104 203.646 113.646C210.104 107.187 213.333 99.3055 213.333 90C213.333 80.6944 210.104 72.8125 203.646 66.3541C197.188 59.8958 189.306 56.6666 180 56.6666C170.694 56.6666 162.813 59.8958 156.354 66.3541C149.896 72.8125 146.667 80.6944 146.667 90C146.667 99.3055 149.896 107.187 156.354 113.646C162.813 120.104 170.694 123.333 180 123.333Z" fill="#CDCDCD"/>
</svg>
