<svg width="360" height="180" viewBox="0 0 360 180" fill="none" xmlns="http://www.w3.org/2000/svg">
<line y1="85" x2="67" y2="85" stroke="#CDCDCD" stroke-width="10"/>
<path d="M165 110.833L180 95.8333L195 110.833L200.833 105L185.833 90L200.833 75L195 69.1667L180 84.1667L165 69.1667L159.167 75L174.167 90L159.167 105L165 110.833ZM180 131.667C174.236 131.667 168.819 130.573 163.75 128.385C158.681 126.198 154.271 123.229 150.521 119.479C146.771 115.729 143.802 111.319 141.615 106.25C139.427 101.181 138.333 95.7639 138.333 90C138.333 84.2361 139.427 78.8195 141.615 73.75C143.802 68.6806 146.771 64.2708 150.521 60.5208C154.271 56.7708 158.681 53.8021 163.75 51.6146C168.819 49.4271 174.236 48.3333 180 48.3333C185.764 48.3333 191.181 49.4271 196.25 51.6146C201.319 53.8021 205.729 56.7708 209.479 60.5208C213.229 64.2708 216.198 68.6806 218.385 73.75C220.573 78.8195 221.667 84.2361 221.667 90C221.667 95.7639 220.573 101.181 218.385 106.25C216.198 111.319 213.229 115.729 209.479 119.479C205.729 123.229 201.319 126.198 196.25 128.385C191.181 130.573 185.764 131.667 180 131.667ZM180 123.333C189.306 123.333 197.188 120.104 203.646 113.646C210.104 107.188 213.333 99.3056 213.333 90C213.333 80.6945 210.104 72.8125 203.646 66.3542C197.188 59.8958 189.306 56.6667 180 56.6667C170.694 56.6667 162.813 59.8958 156.354 66.3542C149.896 72.8125 146.667 80.6945 146.667 90C146.667 99.3056 149.896 107.188 156.354 113.646C162.813 120.104 170.694 123.333 180 123.333Z" fill="#FF0000"/>
</svg>
