<svg width="500" height="500" viewBox="0 0 500 500" fill="none" xmlns="http://www.w3.org/2000/svg">
<g clip-path="url(#clip0_0_3)">
<circle cx="250" cy="250" r="250" fill="#D9D9D9"/>
<path d="M250 250C229.375 250 211.719 242.656 197.031 227.969C182.344 213.281 175 195.625 175 175C175 154.375 182.344 136.719 197.031 122.031C211.719 107.344 229.375 100 250 100C270.625 100 288.281 107.344 302.969 122.031C317.656 136.719 325 154.375 325 175C325 195.625 317.656 213.281 302.969 227.969C288.281 242.656 270.625 250 250 250ZM100 400V347.5C100 336.875 102.734 327.109 108.203 318.203C113.672 309.297 120.937 302.5 130 297.812C149.375 288.125 169.062 280.859 189.062 276.016C209.063 271.172 229.375 268.75 250 268.75C270.625 268.75 290.937 271.172 310.938 276.016C330.938 280.859 350.625 288.125 370 297.812C379.063 302.5 386.328 309.297 391.797 318.203C397.266 327.109 400 336.875 400 347.5V400H100ZM137.5 362.5H362.5V347.5C362.5 344.062 361.641 340.938 359.922 338.125C358.203 335.312 355.938 333.125 353.125 331.562C336.25 323.125 319.219 316.797 302.031 312.578C284.844 308.359 267.5 306.25 250 306.25C232.5 306.25 215.156 308.359 197.969 312.578C180.781 316.797 163.75 323.125 146.875 331.562C144.062 333.125 141.797 335.312 140.078 338.125C138.359 340.938 137.5 344.062 137.5 347.5V362.5ZM250 212.5C260.312 212.5 269.141 208.828 276.484 201.484C283.828 194.141 287.5 185.312 287.5 175C287.5 164.688 283.828 155.859 276.484 148.516C269.141 141.172 260.312 137.5 250 137.5C239.688 137.5 230.859 141.172 223.516 148.516C216.172 155.859 212.5 164.688 212.5 175C212.5 185.312 216.172 194.141 223.516 201.484C230.859 208.828 239.688 212.5 250 212.5Z" fill="white"/>
</g>
<defs>
<clipPath id="clip0_0_3">
<rect width="500" height="500" fill="white"/>
</clipPath>
</defs>
</svg>
