<svg width="1000" height="600" viewBox="0 0 1000 600" fill="none" xmlns="http://www.w3.org/2000/svg">
<path d="M886.782 17H112.218C81.1698 17 56 33.061 56 52.8732V547.127C56 566.939 81.1698 583 112.218 583H886.782C917.83 583 943 566.939 943 547.127V52.8732C943 33.061 917.83 17 886.782 17Z" stroke="#B3B3B3" stroke-width="5" stroke-linejoin="round" stroke-dasharray="20 20"/>
<path d="M336.18 466.055C335.737 472.174 333.471 476.992 329.383 480.508C325.32 484.023 319.956 485.781 313.289 485.781C305.997 485.781 300.255 483.333 296.062 478.438C291.896 473.516 289.812 466.771 289.812 458.203V454.727C289.812 449.258 290.776 444.44 292.703 440.273C294.63 436.107 297.378 432.917 300.945 430.703C304.539 428.464 308.706 427.344 313.445 427.344C320.008 427.344 325.294 429.102 329.305 432.617C333.315 436.133 335.633 441.068 336.258 447.422H324.539C324.253 443.75 323.224 441.094 321.453 439.453C319.708 437.786 317.039 436.953 313.445 436.953C309.539 436.953 306.609 438.359 304.656 441.172C302.729 443.958 301.74 448.294 301.688 454.18V458.477C301.688 464.622 302.612 469.115 304.461 471.953C306.336 474.792 309.279 476.211 313.289 476.211C316.909 476.211 319.604 475.391 321.375 473.75C323.172 472.083 324.201 469.518 324.461 466.055H336.18ZM390.164 485H378.445V460.625H355.594V485H343.875V428.125H355.594V451.172H378.445V428.125H390.164V485ZM443.484 428.125V465.586C443.484 471.81 441.531 476.732 437.625 480.352C433.745 483.971 428.432 485.781 421.688 485.781C415.047 485.781 409.773 484.023 405.867 480.508C401.961 476.992 399.969 472.161 399.891 466.016V428.125H411.609V465.664C411.609 469.388 412.495 472.109 414.266 473.828C416.062 475.521 418.536 476.367 421.688 476.367C428.276 476.367 431.622 472.904 431.727 465.977V428.125H443.484ZM415.203 494.141C415.203 492.578 415.789 491.289 416.961 490.273C418.133 489.258 419.643 488.75 421.492 488.75C423.367 488.75 424.891 489.258 426.062 490.273C427.234 491.289 427.82 492.578 427.82 494.141C427.82 495.677 427.234 496.966 426.062 498.008C424.917 499.049 423.393 499.57 421.492 499.57C419.591 499.57 418.068 499.049 416.922 498.008C415.776 496.966 415.203 495.677 415.203 494.141ZM464.812 464.961V485H453.094V428.125H475.281C479.552 428.125 483.302 428.906 486.531 430.469C489.786 432.031 492.286 434.258 494.031 437.148C495.776 440.013 496.648 443.281 496.648 446.953C496.648 452.526 494.734 456.927 490.906 460.156C487.104 463.359 481.831 464.961 475.086 464.961H464.812ZM464.812 455.469H475.281C478.38 455.469 480.737 454.74 482.352 453.281C483.992 451.823 484.812 449.74 484.812 447.031C484.812 444.245 483.992 441.992 482.352 440.273C480.711 438.555 478.445 437.669 475.555 437.617H464.812V455.469ZM570.945 485H559.227V460.625H536.375V485H524.656V428.125H536.375V451.172H559.227V428.125H570.945V485ZM593.68 485H581.961V428.125H593.68V485ZM593.445 424.883H584.188L573.406 412.773H585.711L593.445 424.883ZM650.828 485H639.109L616.297 447.578V485H604.578V428.125H616.297L639.148 465.625V428.125H650.828V485ZM707.352 485H695.633V460.625H672.781V485H661.062V428.125H672.781V451.172H695.633V428.125H707.352V485Z" fill="#B3B3B3"/>
<path d="M500.5 274.767C521.487 274.767 538.501 257.634 538.501 236.5C538.501 215.366 521.487 198.233 500.5 198.233C479.514 198.233 462.5 215.366 462.5 236.5C462.5 257.634 479.514 274.767 500.5 274.767Z" fill="#B3B3B3"/>
<path d="M464.875 116.917L443.144 140.833H405.5C392.438 140.833 381.75 151.596 381.75 164.75V308.25C381.75 321.404 392.438 332.167 405.5 332.167H595.5C608.563 332.167 619.25 321.404 619.25 308.25V164.75C619.25 151.596 608.563 140.833 595.5 140.833H557.856L536.125 116.917H464.875ZM500.5 296.292C467.725 296.292 441.125 269.505 441.125 236.5C441.125 203.495 467.725 176.708 500.5 176.708C533.275 176.708 559.875 203.495 559.875 236.5C559.875 269.505 533.275 296.292 500.5 296.292Z" fill="#B3B3B3"/>
</svg>
