<svg width="3145" height="1000" viewBox="0 0 3145 1000" fill="none" xmlns="http://www.w3.org/2000/svg">
<g clip-path="url(#clip0_1_25)">
<path d="M564.709 471.771C591.973 397.081 581.577 315.708 521.776 255.879L387.268 121.244C385.295 119.263 382.952 117.691 380.371 116.619C377.791 115.546 375.024 114.994 372.23 114.994C369.436 114.994 366.669 115.546 364.088 116.619C361.508 117.691 359.164 119.263 357.192 121.244L193.427 285.398C170.448 308.876 152.314 336.654 140.061 367.147C127.807 397.639 121.674 430.249 122.011 463.115C122.348 495.98 129.149 528.457 142.026 558.691C154.903 588.926 173.603 616.325 197.059 639.326L221.19 663.509C207.355 693.142 202.961 726.317 208.604 758.535C214.246 790.752 229.651 820.454 252.73 843.61L287.873 878.786C289.845 880.762 292.187 882.33 294.765 883.4C297.342 884.47 300.106 885.02 302.896 885.02C305.687 885.02 308.45 884.47 311.028 883.4C313.606 882.33 315.948 880.762 317.92 878.786L509.359 687.194C567.842 628.597 593.145 548.836 564.709 471.771ZM479.283 657.06L302.896 833.614L282.807 813.476C260.996 791.598 248.747 761.954 248.747 731.047C248.747 700.14 260.996 670.496 282.807 648.618L449.997 481.21C459.966 471.287 467.876 459.489 473.274 446.495C478.672 433.501 481.451 419.567 481.451 405.494C481.451 391.422 478.672 377.488 473.274 364.494C467.876 351.5 459.966 339.702 449.997 329.778C426.1 306.034 387.092 267.106 387.092 267.106C383.104 263.147 377.715 260.925 372.098 260.925C366.481 260.925 361.092 263.147 357.104 267.106L251.53 372.077C239.913 383.591 230.685 397.29 224.375 412.385C218.066 427.481 214.799 443.677 214.764 460.04C214.729 476.404 217.925 492.613 224.169 507.736C230.413 522.859 239.582 536.597 251.149 548.162L287.082 584.012C248.835 622.412 250.387 620.653 244.999 627.014L227.076 609.045C187.745 570.525 165.294 517.956 164.651 462.881C164.009 407.806 185.228 354.726 223.65 315.297L372.244 166.386L491.7 285.955C557.27 351.587 551.472 452.542 485.843 518.174L311.77 691.298C309.73 693.26 308.101 695.609 306.979 698.209C305.857 700.808 305.265 703.606 305.237 706.437C305.21 709.269 305.747 712.078 306.817 714.699C307.887 717.32 309.47 719.701 311.471 721.702C313.472 723.704 315.853 725.285 318.472 726.354C321.092 727.423 323.899 727.958 326.728 727.927C329.556 727.896 332.351 727.301 334.947 726.176C337.543 725.05 339.888 723.418 341.846 721.374L515.978 548.25C522.542 541.653 528.666 534.632 534.31 527.232C539.552 576.859 515.89 620.448 479.283 657.06ZM390.724 480.389L363.576 453.187L385.833 430.879C387.873 428.918 389.502 426.568 390.624 423.969C391.745 421.369 392.337 418.572 392.365 415.74C392.393 412.909 391.856 410.1 390.786 407.479C389.715 404.858 388.133 402.477 386.132 400.475C384.13 398.474 381.75 396.893 379.13 395.824C376.511 394.755 373.704 394.22 370.875 394.251C368.046 394.281 365.252 394.877 362.656 396.002C360.06 397.127 357.714 398.76 355.757 400.804L330.659 425.955C327.08 429.527 324.24 433.772 322.303 438.445C320.365 443.118 319.368 448.127 319.368 453.187C319.368 458.246 320.365 463.256 322.303 467.929C324.24 472.602 327.08 476.846 330.659 480.419L360.677 510.465L317.129 554.024L281.225 518.086C273.621 510.478 267.594 501.44 263.49 491.493C259.386 481.546 257.286 470.885 257.311 460.123C257.335 449.361 259.484 438.71 263.633 428.782C267.782 418.853 273.85 409.844 281.489 402.27L372.274 312.19L420.273 359.971C426.256 365.958 430.999 373.069 434.229 380.896C437.459 388.723 439.112 397.112 439.093 405.581C439.074 414.049 437.383 422.431 434.118 430.243C430.853 438.056 426.078 445.146 420.068 451.106L390.724 480.389Z" fill="url(#paint0_linear_1_25)"/>
</g>
<path d="M791.266 367.256V635H893.502C973.844 635 1021.16 585.088 1021.16 500.107C1021.16 415.127 973.844 367.256 893.502 367.256H791.266ZM847.301 413.457H886.822C936.178 413.457 964.01 444.258 964.01 500.293C964.01 558.184 936.92 588.613 886.822 588.613H847.301V413.457ZM1170.38 635V367.256H1114.34V635H1170.38ZM1449.29 588.613H1327.94V521.074H1442.42V478.027H1327.94V413.457H1449.29V367.256H1271.91V635H1449.29V588.613ZM1339.82 290.811L1289.9 349.629H1330.91L1359.86 314.004H1361.34L1390.29 349.629H1431.29L1381.38 290.811H1339.82ZM1360.6 719.609C1376.18 719.609 1388.24 707.178 1388.24 691.963C1388.24 676.748 1376.18 664.316 1360.6 664.316C1345.01 664.316 1332.95 676.748 1332.95 691.963C1332.95 707.178 1345.01 719.609 1360.6 719.609ZM1602.77 367.256H1546.74V540.371C1546.74 599.375 1590.34 639.639 1658.99 639.639C1727.46 639.639 1771.06 599.375 1771.06 540.371V367.256H1715.03V534.805C1715.03 569.131 1694.8 591.582 1658.99 591.582C1623 591.582 1602.77 569.131 1602.77 534.805V367.256Z" fill="#333333"/>
<path d="M2048.31 635V413.457H2125.87V367.256H1914.91V413.457H1992.28V635H2048.31ZM2446.54 635V367.256H2390.5V475.986H2269.89V367.256H2213.86V635H2269.89V522.188H2390.5V635H2446.54ZM2723.41 635H2782.97L2689.82 367.256H2623.96L2531 635H2588.52L2608.93 570.059H2703L2723.41 635ZM2655.31 418.467H2656.61L2690.94 528.125H2620.99L2655.31 418.467ZM2622.66 304.727C2628.04 302.5 2636.2 301.201 2642.32 301.201C2653.09 301.201 2660.32 306.768 2660.32 314.746C2660.32 322.91 2652.9 330.889 2642.32 334.6L2658.28 354.082C2678.69 346.104 2693.16 329.775 2693.16 311.777C2693.16 289.326 2675.91 275.596 2649.19 275.596C2639.36 275.596 2629.15 277.266 2622.66 280.234V304.727ZM2975.23 362.617C2895.82 362.617 2846.09 415.869 2846.09 501.221C2846.09 586.387 2895.82 639.639 2975.23 639.639C3054.46 639.639 3104.37 586.387 3104.37 501.221C3104.37 415.869 3054.46 362.617 2975.23 362.617ZM2975.23 409.375C3019.02 409.375 3047.04 445 3047.04 501.221C3047.04 557.256 3019.02 592.695 2975.23 592.695C2931.26 592.695 2903.24 557.256 2903.24 501.221C2903.24 445 2931.44 409.375 2975.23 409.375Z" fill="#333333"/>
<defs>
<linearGradient id="paint0_linear_1_25" x1="222" y1="805" x2="461.579" y2="186.724" gradientUnits="userSpaceOnUse">
<stop stop-color="#F2C01C"/>
<stop offset="1" stop-color="#FFE249"/>
</linearGradient>
<clipPath id="clip0_1_25">
<rect width="457" height="770" fill="white" transform="translate(122 115)"/>
</clipPath>
</defs>
</svg>
