<svg width="400" height="400" viewBox="0 0 400 400" fill="none" xmlns="http://www.w3.org/2000/svg">
<rect x="22.5" y="22.5" width="355" height="355" rx="22.5" stroke="#B3B3B3" stroke-width="5" stroke-linejoin="round" stroke-dasharray="20 20"/>
<path d="M83.9893 280.377H78.9805V294H75.6113V280.377H70.6699V277.648H83.9893V280.377ZM93.8047 290.631H87.8975L86.7744 294H83.1919L89.2788 277.648H92.4009L98.5215 294H94.939L93.8047 290.631ZM88.8071 287.902H92.895L90.8398 281.781L88.8071 287.902ZM89.6606 276.312L89.4922 274.807C90.0387 274.777 90.4318 274.71 90.6714 274.605C90.9185 274.493 91.042 274.317 91.042 274.077C91.042 273.561 90.5104 273.302 89.4473 273.302L89.5259 271.786C90.9334 271.786 91.9928 271.981 92.7041 272.37C93.4229 272.759 93.7822 273.295 93.7822 273.976C93.7822 274.418 93.6287 274.781 93.3218 275.065C93.0148 275.342 92.6068 275.518 92.0977 275.593V276.312H89.6606ZM103.631 294H100.262V277.648H103.631V294ZM115.861 291.293H123.015V294H112.492V277.648H115.861V291.293ZM134.796 286.914H128.327V291.293H135.919V294H124.958V277.648H135.896V280.377H128.327V284.274H134.796V286.914ZM134.942 276.379V276.514H132.359L130.629 274.886L128.9 276.514H126.362V276.334L129.686 273.235H131.573L134.942 276.379ZM151.192 294H147.823L141.265 283.241V294H137.896V277.648H141.265L147.834 288.43V277.648H151.192V294ZM172.8 291.934C172.193 292.66 171.336 293.225 170.228 293.629C169.12 294.026 167.892 294.225 166.544 294.225C165.129 294.225 163.887 293.918 162.816 293.304C161.753 292.682 160.929 291.784 160.345 290.608C159.769 289.433 159.473 288.052 159.458 286.464V285.353C159.458 283.72 159.731 282.309 160.278 281.119C160.832 279.921 161.625 279.007 162.659 278.378C163.699 277.742 164.916 277.424 166.309 277.424C168.248 277.424 169.764 277.888 170.857 278.816C171.95 279.737 172.598 281.081 172.8 282.848H169.521C169.371 281.912 169.038 281.227 168.521 280.793C168.012 280.359 167.308 280.142 166.41 280.142C165.264 280.142 164.392 280.572 163.793 281.433C163.194 282.294 162.891 283.574 162.883 285.274V286.318C162.883 288.033 163.209 289.328 163.86 290.204C164.512 291.08 165.466 291.518 166.724 291.518C167.989 291.518 168.892 291.249 169.431 290.709V287.891H166.365V285.409H172.8V291.934ZM179.123 294H175.753V277.648H179.123V294ZM191.689 290.631H185.782L184.659 294H181.077L187.164 277.648H190.286L196.406 294H192.824L191.689 290.631ZM186.692 287.902H190.78L188.725 281.781L186.692 287.902ZM187.837 274.178H189.668L192.869 276.761H190.443L188.747 275.346L187.051 276.761H184.637L187.837 274.178ZM193.868 272.202H196.462L193.913 275.256H192.038L193.868 272.202ZM201.887 285.016L205.29 277.648H208.973L203.605 288.07V294H200.18V288.07L194.812 277.648H198.506L201.887 285.016ZM222.045 283.286L225.111 277.648H228.986L224.224 285.757L229.109 294H225.19L222.045 288.272L218.901 294H214.981L219.867 285.757L215.105 277.648H218.979L222.045 283.286ZM240.048 290.631H234.141L233.018 294H229.435L235.522 277.648H238.644L244.765 294H241.182L240.048 290.631ZM235.05 287.902H239.138L237.083 281.781L235.05 287.902ZM237.779 273.269H241.317L238.206 276.75H235.567L237.779 273.269ZM258.881 288.553C258.754 290.313 258.103 291.698 256.927 292.708C255.759 293.719 254.217 294.225 252.3 294.225C250.204 294.225 248.553 293.521 247.348 292.113C246.15 290.698 245.551 288.759 245.551 286.296V285.296C245.551 283.724 245.828 282.339 246.382 281.141C246.936 279.943 247.726 279.026 248.751 278.39C249.785 277.746 250.983 277.424 252.345 277.424C254.232 277.424 255.752 277.929 256.905 278.94C258.058 279.951 258.724 281.369 258.904 283.196H255.535C255.452 282.141 255.157 281.377 254.647 280.905C254.146 280.426 253.378 280.187 252.345 280.187C251.222 280.187 250.38 280.591 249.818 281.399C249.264 282.201 248.98 283.447 248.965 285.139V286.375C248.965 288.141 249.231 289.433 249.762 290.249C250.301 291.065 251.147 291.473 252.3 291.473C253.341 291.473 254.116 291.237 254.625 290.766C255.142 290.286 255.437 289.549 255.512 288.553H258.881ZM280.118 294H276.749L270.19 283.241V294H266.821V277.648H270.19L276.76 288.43V277.648H280.118V294ZM296.369 294H293V286.992H286.43V294H283.061V277.648H286.43V284.274H293V277.648H296.369V294ZM308.756 290.631H302.849L301.726 294H298.143L304.23 277.648H307.352L313.473 294H309.89L308.756 290.631ZM303.758 287.902H307.846L305.791 281.781L303.758 287.902ZM310.148 276.413V276.548H307.565L305.836 274.919L304.106 276.548H301.568V276.368L304.893 273.269H306.779L310.148 276.413ZM304.084 296.561C304.084 296.111 304.252 295.741 304.589 295.449C304.926 295.157 305.361 295.011 305.892 295.011C306.431 295.011 306.869 295.157 307.206 295.449C307.543 295.741 307.711 296.111 307.711 296.561C307.711 297.002 307.543 297.373 307.206 297.672C306.877 297.972 306.439 298.122 305.892 298.122C305.346 298.122 304.908 297.972 304.578 297.672C304.249 297.373 304.084 297.002 304.084 296.561ZM328.297 294H324.928L318.369 283.241V294H315V277.648H318.369L324.939 288.43V277.648H328.297V294Z" fill="#B2B2B2"/>
<path d="M259.25 193V122.5C259.25 116.037 253.962 110.75 247.5 110.75H177C170.537 110.75 165.25 116.037 165.25 122.5V193C165.25 199.463 170.537 204.75 177 204.75H247.5C253.962 204.75 259.25 199.463 259.25 193ZM194.625 169.5L206.551 185.421L224 163.625L247.5 193H177L194.625 169.5ZM141.75 134.25V216.5C141.75 222.963 147.037 228.25 153.5 228.25H235.75V216.5H153.5V134.25H141.75Z" fill="#B2B2B2"/>
</svg>
